<svg xmlns="http://www.w3.org/2000/svg" viewBox="0 0 32 32" shape-rendering="crispEdges">
  <rect width="32" height="32" fill="#0f1b2d"/>
  <rect x="2" y="2" width="28" height="28" fill="#203b66"/>
  <rect x="4" y="18" width="24" height="10" fill="#edf7ff"/>
  <rect x="5" y="20" width="22" height="1" fill="#7bc5ff"/>
  <rect x="6" y="23" width="20" height="1" fill="#c9e6fb"/>
  <!-- skis -->
  <rect x="6" y="25" width="20" height="2" fill="#2f2f2f"/>
  <rect x="8" y="27" width="16" height="1" fill="#2f2f2f"/>
  <!-- poles -->
  <rect x="8" y="12" width="1" height="12" fill="#7e5228"/>
  <rect x="23" y="12" width="1" height="12" fill="#7e5228"/>
  <!-- body -->
  <rect x="11" y="11" width="10" height="11" fill="#2d55d8"/>
  <rect x="11" y="17" width="10" height="2" fill="#20388f"/>
  <!-- legs -->
  <rect x="12" y="22" width="3" height="3" fill="#1f2740"/>
  <rect x="17" y="22" width="3" height="3" fill="#1f2740"/>
  <!-- helmet / face -->
  <rect x="12" y="5" width="8" height="2" fill="#ffec74"/>
  <rect x="13" y="7" width="6" height="2" fill="#202020"/>
  <rect x="13" y="9" width="6" height="2" fill="#ffd9b2"/>
  <!-- accent spark -->
  <rect x="14" y="28" width="4" height="1" fill="#ffd34d"/>
</svg>
